<svg width="64" height="64" viewBox="0 0 64 64" fill="none" xmlns="http://www.w3.org/2000/svg">
<path d="M10.514 40.905C10.0976 40.9039 9.6859 40.8171 9.3045 40.65C8.76547 40.4215 8.30632 40.0382 7.98512 39.5487C7.66392 39.0592 7.49509 38.4855 7.5 37.9V29.5H5.5C4.70459 29.4992 3.94199 29.1829 3.37956 28.6204C2.81712 28.058 2.50079 27.2954 2.5 26.5V5.5C2.50079 4.70459 2.81712 3.94199 3.37956 3.37956C3.94199 2.81712 4.70459 2.50079 5.5 2.5H43.5C44.2954 2.50079 45.058 2.81712 45.6204 3.37956C46.1829 3.94199 46.4992 4.70459 46.5 5.5V24.1C46.5 24.3652 46.3946 24.6196 46.2071 24.8071C46.0196 24.9946 45.7652 25.1 45.5 25.1H20.5C20.2348 25.1 19.9804 25.2054 19.7929 25.3929C19.6054 25.5804 19.5 25.8348 19.5 26.1V33.165C19.5 33.3021 19.4718 33.4377 19.4172 33.5635C19.3626 33.6892 19.2827 33.8024 19.1825 33.896L12.55 40.091C12.0001 40.6122 11.2717 40.9034 10.514 40.905V40.905ZM5.5 4.5C5.23478 4.5 4.98043 4.60536 4.79289 4.79289C4.60536 4.98043 4.5 5.23478 4.5 5.5V26.5C4.5 26.7652 4.60536 27.0196 4.79289 27.2071C4.98043 27.3946 5.23478 27.5 5.5 27.5H8.5C8.76522 27.5 9.01957 27.6054 9.20711 27.7929C9.39464 27.9804 9.5 28.2348 9.5 28.5V37.9C9.50037 38.0947 9.55757 38.2851 9.66458 38.4477C9.7716 38.6104 9.92377 38.7383 10.1024 38.8157C10.2811 38.8931 10.4785 38.9167 10.6703 38.8835C10.8622 38.8503 11.0402 38.7619 11.1825 38.629L17.5 32.7305V26.1C17.5009 25.3046 17.8173 24.5421 18.3797 23.9797C18.9421 23.4173 19.7046 23.1009 20.5 23.1H44.5V5.5C44.5 5.23478 44.3946 4.98043 44.2071 4.79289C44.0196 4.60536 43.7652 4.5 43.5 4.5H5.5Z" fill="#3C4A58"/>
<path d="M53.485 61.5021C52.7297 61.4999 52.0035 61.2103 51.454 60.6921L40.1055 50.0996H20.5C19.7046 50.0988 18.942 49.7825 18.3796 49.2201C17.8171 48.6576 17.5008 47.895 17.5 47.0996V26.0996C17.5009 25.3042 17.8173 24.5417 18.3797 23.9793C18.9421 23.4169 19.7046 23.1005 20.5 23.0996H58.5C59.2954 23.1005 60.0579 23.4169 60.6203 23.9793C61.1827 24.5417 61.4991 25.3042 61.5 26.0996V47.0996C61.4992 47.895 61.1829 48.6576 60.6204 49.2201C60.058 49.7825 59.2954 50.0988 58.5 50.0996H56.5V58.4946C56.5051 59.0795 56.3368 59.6528 56.0165 60.1422C55.6962 60.6316 55.2381 61.0152 54.7 61.2446C54.3171 61.4132 53.9034 61.5009 53.485 61.5021V61.5021ZM20.5 25.0996C20.2348 25.0996 19.9804 25.205 19.7929 25.3925C19.6054 25.58 19.5 25.8344 19.5 26.0996V47.0996C19.5 47.3648 19.6054 47.6192 19.7929 47.8067C19.9804 47.9943 20.2348 48.0996 20.5 48.0996H40.5C40.7534 48.0996 40.9973 48.1957 41.1825 48.3686L52.8175 59.2286C52.9601 59.3618 53.1386 59.4503 53.3309 59.4833C53.5232 59.5163 53.721 59.4923 53.8999 59.4143C54.0787 59.3363 54.2308 59.2076 54.3375 59.0442C54.4441 58.8808 54.5006 58.6897 54.5 58.4946V49.0996C54.5 48.8344 54.6054 48.58 54.7929 48.3925C54.9804 48.205 55.2348 48.0996 55.5 48.0996H58.5C58.7652 48.0996 59.0196 47.9943 59.2071 47.8067C59.3946 47.6192 59.5 47.3648 59.5 47.0996V26.0996C59.5 25.8344 59.3946 25.58 59.2071 25.3925C59.0196 25.205 58.7652 25.0996 58.5 25.0996H20.5Z" fill="#3C4A58"/>
<path d="M19.5 11H9.5C9.23478 11 8.98043 10.8946 8.79289 10.7071C8.60536 10.5196 8.5 10.2652 8.5 10C8.5 9.73478 8.60536 9.48043 8.79289 9.29289C8.98043 9.10536 9.23478 9 9.5 9H19.5C19.7652 9 20.0196 9.10536 20.2071 9.29289C20.3946 9.48043 20.5 9.73478 20.5 10C20.5 10.2652 20.3946 10.5196 20.2071 10.7071C20.0196 10.8946 19.7652 11 19.5 11Z" fill="#3C4A58"/>
<path d="M24.5 15.5H9.5C9.23478 15.5 8.98043 15.3946 8.79289 15.2071C8.60536 15.0196 8.5 14.7652 8.5 14.5C8.5 14.2348 8.60536 13.9804 8.79289 13.7929C8.98043 13.6054 9.23478 13.5 9.5 13.5H24.5C24.7652 13.5 25.0196 13.6054 25.2071 13.7929C25.3946 13.9804 25.5 14.2348 25.5 14.5C25.5 14.7652 25.3946 15.0196 25.2071 15.2071C25.0196 15.3946 24.7652 15.5 24.5 15.5Z" fill="#3C4A58"/>
<path d="M29.5 20H9.5C9.23478 20 8.98043 19.8946 8.79289 19.7071C8.60536 19.5196 8.5 19.2652 8.5 19C8.5 18.7348 8.60536 18.4804 8.79289 18.2929C8.98043 18.1054 9.23478 18 9.5 18H29.5C29.7652 18 30.0196 18.1054 30.2071 18.2929C30.3946 18.4804 30.5 18.7348 30.5 19C30.5 19.2652 30.3946 19.5196 30.2071 19.7071C30.0196 19.8946 29.7652 20 29.5 20Z" fill="#3C4A58"/>
<path d="M55 31.5H45C44.7348 31.5 44.4804 31.3946 44.2929 31.2071C44.1054 31.0196 44 30.7652 44 30.5C44 30.2348 44.1054 29.9804 44.2929 29.7929C44.4804 29.6054 44.7348 29.5 45 29.5H55C55.2652 29.5 55.5196 29.6054 55.7071 29.7929C55.8946 29.9804 56 30.2348 56 30.5C56 30.7652 55.8946 31.0196 55.7071 31.2071C55.5196 31.3946 55.2652 31.5 55 31.5Z" fill="#3C4A58"/>
<path d="M55 36H40C39.7348 36 39.4804 35.8946 39.2929 35.7071C39.1054 35.5196 39 35.2652 39 35C39 34.7348 39.1054 34.4804 39.2929 34.2929C39.4804 34.1054 39.7348 34 40 34H55C55.2652 34 55.5196 34.1054 55.7071 34.2929C55.8946 34.4804 56 34.7348 56 35C56 35.2652 55.8946 35.5196 55.7071 35.7071C55.5196 35.8946 55.2652 36 55 36Z" fill="#3C4A58"/>
<path d="M55 40.5H35C34.7348 40.5 34.4804 40.3946 34.2929 40.2071C34.1054 40.0196 34 39.7652 34 39.5C34 39.2348 34.1054 38.9804 34.2929 38.7929C34.4804 38.6054 34.7348 38.5 35 38.5H55C55.2652 38.5 55.5196 38.6054 55.7071 38.7929C55.8946 38.9804 56 39.2348 56 39.5C56 39.7652 55.8946 40.0196 55.7071 40.2071C55.5196 40.3946 55.2652 40.5 55 40.5Z" fill="#3C4A58"/>
</svg>
