<svg width="64" height="64" viewBox="0 0 64 64" fill="none" xmlns="http://www.w3.org/2000/svg">
<g clip-path="url(#clip0_160_156)">
<path d="M32 25.2503C30.1659 25.2415 28.3648 24.7608 26.7702 23.8544C25.1756 22.9481 23.8411 21.6467 22.895 20.0753C22.8135 19.9393 22.7705 19.7838 22.7705 19.6253C22.7705 19.4668 22.8135 19.3113 22.895 19.1753C23.2614 18.5612 23.7804 18.0524 24.4015 17.6983C25.0227 17.3441 25.725 17.1567 26.44 17.1543H37.562C38.277 17.1567 38.9793 17.3441 39.6005 17.6983C40.2217 18.0524 40.7406 18.5612 41.107 19.1753C41.1885 19.3113 41.2315 19.4668 41.2315 19.6253C41.2315 19.7838 41.1885 19.9393 41.107 20.0753C40.1608 21.6469 38.8259 22.9486 37.2309 23.8549C35.6359 24.7613 33.8345 25.2418 32 25.2503V25.2503ZM24.7065 19.6578C25.5187 20.8425 26.6073 21.8115 27.8781 22.481C29.1489 23.1506 30.5636 23.5004 32 23.5004C33.4364 23.5004 34.8511 23.1506 36.1219 22.481C37.3927 21.8115 38.4813 20.8425 39.2935 19.6578C39.0724 19.4199 38.8044 19.2305 38.5063 19.1014C38.2083 18.9723 37.8868 18.9064 37.562 18.9078H26.438C26.1132 18.9064 25.7917 18.9723 25.4937 19.1014C25.1957 19.2305 24.9276 19.4199 24.7065 19.6578V19.6578Z" fill="#3C4A58"/>
<path d="M32.0004 16.112C31.8256 16.112 31.6548 16.0598 31.5099 15.962L29.5159 14.612C28.9026 14.1968 28.4004 13.6376 28.0534 12.9833C27.7064 12.329 27.5251 11.5996 27.5254 10.859V8.475C27.5254 7.88734 27.6411 7.30542 27.866 6.76249C28.0909 6.21956 28.4205 5.72624 28.8361 5.3107C29.2516 4.89516 29.745 4.56553 30.2879 4.34064C30.8308 4.11575 31.4127 4 32.0004 4C32.5881 4 33.17 4.11575 33.7129 4.34064C34.2558 4.56553 34.7492 4.89516 35.1647 5.3107C35.5802 5.72624 35.9099 6.21956 36.1348 6.76249C36.3596 7.30542 36.4754 7.88734 36.4754 8.475V10.8585C36.4757 11.5991 36.2944 12.3284 35.9474 12.9826C35.6004 13.6368 35.0982 14.196 34.4849 14.611L32.4909 15.961C32.3461 16.0591 32.1753 16.1117 32.0004 16.112V16.112ZM32.0004 5.75C31.2779 5.75079 30.5853 6.03815 30.0744 6.54901C29.5635 7.05988 29.2762 7.75253 29.2754 8.475V10.8585C29.2755 11.3135 29.3872 11.7614 29.6008 12.1632C29.8144 12.5649 30.1233 12.908 30.5004 13.1625L32.0004 14.18L33.5034 13.162C33.8799 12.9072 34.1881 12.564 34.4012 12.1624C34.6142 11.7608 34.7255 11.3131 34.7254 10.8585V8.475C34.7246 7.75253 34.4372 7.05988 33.9264 6.54901C33.4155 6.03815 32.7229 5.75079 32.0004 5.75V5.75Z" fill="#3C4A58"/>
<path d="M14.625 60.0003C12.7909 59.9915 10.9898 59.5108 9.39522 58.6044C7.80061 57.6981 6.46608 56.3967 5.52001 54.8253C5.43854 54.6893 5.39551 54.5338 5.39551 54.3753C5.39551 54.2168 5.43854 54.0613 5.52001 53.9253C5.88637 53.3112 6.40536 52.8024 7.02655 52.4483C7.64773 52.0941 8.34997 51.9067 9.06501 51.9043H20.187C20.902 51.9067 21.6043 52.0941 22.2255 52.4483C22.8467 52.8024 23.3656 53.3112 23.732 53.9253C23.8135 54.0613 23.8565 54.2168 23.8565 54.3753C23.8565 54.5338 23.8135 54.6893 23.732 54.8253C22.7858 56.3969 21.4509 57.6986 19.8559 58.6049C18.2609 59.5113 16.4595 59.9918 14.625 60.0003ZM7.33151 54.4078C8.14372 55.5925 9.23229 56.5615 10.5031 57.231C11.7739 57.9006 13.1886 58.2504 14.625 58.2504C16.0614 58.2504 17.4761 57.9006 18.7469 57.231C20.0177 56.5615 21.1063 55.5925 21.9185 54.4078C21.6974 54.1699 21.4294 53.9805 21.1313 53.8514C20.8333 53.7223 20.5118 53.6564 20.187 53.6578H9.06301C8.73824 53.6564 8.41669 53.7223 8.11867 53.8514C7.82066 53.9805 7.55263 54.1699 7.33151 54.4078V54.4078Z" fill="#3C4A58"/>
<path d="M14.6254 50.862C14.4506 50.862 14.2798 50.8098 14.1349 50.712L12.1409 49.362C11.5275 48.9468 11.0253 48.3875 10.6783 47.7331C10.3313 47.0787 10.15 46.3492 10.1504 45.6085V43.225C10.1504 42.0382 10.6219 40.8999 11.4611 40.0607C12.3003 39.2215 13.4385 38.75 14.6254 38.75C15.8122 38.75 16.9505 39.2215 17.7897 40.0607C18.6289 40.8999 19.1004 42.0382 19.1004 43.225V45.6085C19.1003 46.3486 18.9188 47.0775 18.5718 47.7312C18.2248 48.385 17.7229 48.9437 17.1099 49.3585L15.1159 50.7085C14.9714 50.8075 14.8006 50.861 14.6254 50.862V50.862ZM14.6254 40.5C13.9029 40.5008 13.2103 40.7881 12.6994 41.299C12.1885 41.8099 11.9012 42.5025 11.9004 43.225V45.6085C11.9002 46.0632 12.0115 46.5111 12.2247 46.9128C12.4378 47.3145 12.7462 47.6577 13.1229 47.9125L14.6229 48.93L16.1259 47.912C16.5028 47.6575 16.8116 47.3144 17.0251 46.9128C17.2385 46.5112 17.3503 46.0633 17.3504 45.6085V43.225C17.3496 42.5025 17.0622 41.8099 16.5514 41.299C16.0405 40.7881 15.3479 40.5008 14.6254 40.5V40.5Z" fill="#3C4A58"/>
<path d="M49.375 60.0003C47.5409 59.9915 45.7398 59.5108 44.1452 58.6044C42.5506 57.6981 41.2161 56.3967 40.27 54.8253C40.1885 54.6893 40.1455 54.5338 40.1455 54.3753C40.1455 54.2168 40.1885 54.0613 40.27 53.9253C40.6364 53.3112 41.1554 52.8024 41.7765 52.4483C42.3977 52.0941 43.1 51.9067 43.815 51.9043H54.939C55.654 51.9067 56.3563 52.0941 56.9775 52.4483C57.5987 52.8024 58.1177 53.3112 58.484 53.9253C58.5655 54.0613 58.6085 54.2168 58.6085 54.3753C58.6085 54.5338 58.5655 54.6893 58.484 54.8253C57.5376 56.3972 56.2024 57.699 54.6071 58.6054C53.0117 59.5118 51.2098 59.9921 49.375 60.0003V60.0003ZM42.0815 54.4078C42.8937 55.5925 43.9823 56.5615 45.2531 57.231C46.5239 57.9006 47.9386 58.2504 49.375 58.2504C50.8114 58.2504 52.2261 57.9006 53.4969 57.231C54.7677 56.5615 55.8563 55.5925 56.6685 54.4078C56.4474 54.1699 56.1794 53.9805 55.8813 53.8514C55.5833 53.7223 55.2618 53.6564 54.937 53.6578H43.813C43.4882 53.6564 43.1667 53.7223 42.8687 53.8514C42.5707 53.9805 42.3026 54.1699 42.0815 54.4078Z" fill="#3C4A58"/>
<path d="M49.3754 50.862C49.2006 50.862 49.0298 50.8098 48.8849 50.712L46.8909 49.362C46.2775 48.9468 45.7753 48.3875 45.4283 47.7331C45.0813 47.0787 44.9 46.3492 44.9004 45.6085V43.225C44.9004 42.0382 45.3719 40.8999 46.2111 40.0607C47.0503 39.2215 48.1885 38.75 49.3754 38.75C50.5622 38.75 51.7005 39.2215 52.5397 40.0607C53.3789 40.8999 53.8504 42.0382 53.8504 43.225V45.6085C53.8503 46.3486 53.6688 47.0775 53.3218 47.7312C52.9748 48.385 52.4729 48.9437 51.8599 49.3585L49.8659 50.7085C49.7214 50.8075 49.5506 50.861 49.3754 50.862V50.862ZM49.3754 40.5C48.6529 40.5008 47.9603 40.7881 47.4494 41.299C46.9385 41.8099 46.6512 42.5025 46.6504 43.225V45.6085C46.6502 46.0632 46.7615 46.5111 46.9747 46.9128C47.1878 47.3145 47.4962 47.6577 47.8729 47.9125L49.3729 48.93L50.8759 47.912C51.2524 47.6572 51.5606 47.314 51.7737 46.9124C51.9867 46.5108 52.098 46.0631 52.0979 45.6085V43.225C52.0971 42.503 51.8101 41.8107 51.2998 41.2999C50.7894 40.7891 50.0974 40.5015 49.3754 40.5V40.5Z" fill="#3C4A58"/>
<path d="M24.0843 40.2764C23.8609 40.276 23.6461 40.1899 23.4843 40.0359C21.635 38.2761 19.3017 37.1095 16.7843 36.6859C16.6494 36.6632 16.5217 36.6092 16.4114 36.5282C16.3012 36.4473 16.2115 36.3415 16.1495 36.2196C16.0876 36.0976 16.0551 35.9628 16.0547 35.826C16.0543 35.6892 16.086 35.5542 16.1473 35.4319L21.7583 24.2084C21.8194 24.0861 21.9083 23.9798 22.0179 23.8981C22.1275 23.8164 22.2548 23.7615 22.3894 23.7378C22.5241 23.7142 22.6624 23.7224 22.7933 23.7618C22.9242 23.8012 23.0441 23.8708 23.1433 23.9649C24.9926 25.7247 27.3258 26.8913 29.8433 27.3149C29.9782 27.3376 30.1059 27.3916 30.2161 27.4726C30.3264 27.5536 30.4161 27.6593 30.478 27.7813C30.54 27.9032 30.5724 28.038 30.5728 28.1748C30.5732 28.3116 30.5415 28.4466 30.4803 28.5689L24.8673 39.7924C24.7944 39.9377 24.6826 40.0599 24.5443 40.1453C24.4061 40.2308 24.2468 40.2762 24.0843 40.2764V40.2764ZM18.2193 35.2004C20.2632 35.7163 22.1704 36.6709 23.8083 37.9979L28.4083 28.8034C26.3643 28.2876 24.4572 27.333 22.8193 26.0059L18.2193 35.2004Z" fill="#3C4A58"/>
<path d="M36.2181 54.25H27.7821C27.6454 54.25 27.5106 54.2179 27.3886 54.1565C27.2665 54.095 27.1606 54.0058 27.0792 53.896C26.9978 53.7862 26.9433 53.6588 26.92 53.5242C26.8967 53.3895 26.9053 53.2513 26.9451 53.1205C27.6851 50.6783 27.6851 48.0717 26.9451 45.6295C26.9053 45.4987 26.8967 45.3605 26.92 45.2258C26.9433 45.0912 26.9978 44.9638 27.0792 44.854C27.1606 44.7442 27.2665 44.655 27.3886 44.5935C27.5106 44.5321 27.6454 44.5 27.7821 44.5H36.2181C36.3547 44.5 36.4895 44.5321 36.6115 44.5935C36.7336 44.655 36.8395 44.7442 36.9209 44.854C37.0023 44.9638 37.0568 45.0912 37.0801 45.2258C37.1034 45.3605 37.0948 45.4987 37.0551 45.6295C36.3151 48.0717 36.3151 50.6783 37.0551 53.1205C37.0948 53.2513 37.1034 53.3895 37.0801 53.5242C37.0568 53.6588 37.0023 53.7862 36.9209 53.896C36.8395 54.0058 36.7336 54.095 36.6115 54.1565C36.4895 54.2179 36.3547 54.25 36.2181 54.25V54.25ZM28.9136 52.5H35.0866C34.6379 50.4408 34.6379 48.3092 35.0866 46.25H28.9136C29.3622 48.3092 29.3622 50.4408 28.9136 52.5V52.5Z" fill="#3C4A58"/>
<path d="M39.9163 40.2759C39.7537 40.2756 39.5945 40.2303 39.4562 40.1448C39.3179 40.0593 39.2061 39.9372 39.1333 39.7919L33.5223 28.5699C33.461 28.4476 33.4293 28.3126 33.4297 28.1758C33.4301 28.039 33.4626 27.9042 33.5245 27.7822C33.5865 27.6603 33.6762 27.5546 33.7864 27.4736C33.8967 27.3926 34.0244 27.3386 34.1593 27.3159C36.6767 26.8923 39.01 25.7257 40.8593 23.9659C40.9584 23.8718 41.0783 23.8022 41.2092 23.7628C41.3401 23.7233 41.4784 23.7151 41.6131 23.7388C41.7478 23.7625 41.875 23.8174 41.9846 23.8991C42.0942 23.9808 42.1831 24.0871 42.2443 24.2094L47.8533 35.4299C47.9145 35.5522 47.9462 35.6872 47.9458 35.824C47.9454 35.9608 47.913 36.0956 47.851 36.2175C47.7891 36.3395 47.6994 36.4452 47.5891 36.5262C47.4789 36.6072 47.3512 36.6612 47.2163 36.6839C44.6988 37.1075 42.3656 38.2741 40.5163 40.0339C40.3546 40.1884 40.1399 40.275 39.9163 40.2759V40.2759ZM35.5943 28.7999L40.1943 37.9944C41.8318 36.6687 43.7383 35.7151 45.7813 35.1999L41.1813 26.0054C39.5437 27.3311 37.6373 28.2847 35.5943 28.7999V28.7999Z" fill="#3C4A58"/>
<path d="M21.9715 34.9153C21.8229 34.915 21.6768 34.8768 21.547 34.8044C21.4171 34.732 21.3079 34.6277 21.2295 34.5015C21.1511 34.3752 21.1061 34.231 21.0987 34.0826C21.0914 33.9341 21.1219 33.7862 21.1875 33.6528L23.2035 29.5743C23.3088 29.3704 23.4899 29.216 23.7078 29.1444C23.9258 29.0727 24.1632 29.0895 24.3689 29.1912C24.5746 29.2929 24.7321 29.4713 24.8075 29.6881C24.8829 29.9048 24.8702 30.1424 24.772 30.3498L22.7565 34.4278C22.6843 34.5743 22.5725 34.6976 22.4337 34.7838C22.295 34.87 22.1349 34.9155 21.9715 34.9153V34.9153Z" fill="#3C4A58"/>
<path d="M42.0281 34.9153C41.8648 34.9155 41.7047 34.87 41.5659 34.7838C41.4272 34.6976 41.3154 34.5743 41.2431 34.4278L39.2276 30.3498C39.1295 30.1424 39.1167 29.9048 39.1921 29.6881C39.2675 29.4713 39.4251 29.2929 39.6307 29.1912C39.8364 29.0895 40.0738 29.0727 40.2918 29.1444C40.5098 29.216 40.6909 29.3704 40.7961 29.5743L42.8121 33.6528C42.8777 33.7862 42.9083 33.9341 42.9009 34.0826C42.8936 34.231 42.8486 34.3752 42.7702 34.5015C42.6918 34.6277 42.5825 34.732 42.4527 34.8044C42.3229 34.8768 42.1768 34.915 42.0281 34.9153V34.9153Z" fill="#3C4A58"/>
<path d="M32.7264 50.25H31.2734C31.0414 50.25 30.8188 50.1578 30.6547 49.9937C30.4906 49.8296 30.3984 49.6071 30.3984 49.375C30.3984 49.1429 30.4906 48.9204 30.6547 48.7563C30.8188 48.5922 31.0414 48.5 31.2734 48.5H32.7264C32.9585 48.5 33.1811 48.5922 33.3452 48.7563C33.5093 48.9204 33.6014 49.1429 33.6014 49.375C33.6014 49.6071 33.5093 49.8296 33.3452 49.9937C33.1811 50.1578 32.9585 50.25 32.7264 50.25Z" fill="#3C4A58"/>
<path d="M32 29.25C29.1075 29.25 26.2799 28.3923 23.8748 26.7852C21.4697 25.1782 19.5952 22.8941 18.4883 20.2218C17.3813 17.5494 17.0917 14.6088 17.656 11.7718C18.2203 8.93484 19.6132 6.32891 21.6586 4.28357C23.7039 2.23823 26.3098 0.845331 29.1468 0.281022C31.9838 -0.283287 34.9244 0.00633669 37.5968 1.11327C40.2691 2.2202 42.5532 4.09472 44.1602 6.49979C45.7673 8.90486 46.625 11.7325 46.625 14.625C46.6206 18.5025 45.0784 22.2198 42.3366 24.9616C39.5948 27.7034 35.8775 29.2456 32 29.25V29.25ZM32 1.75001C29.4536 1.75001 26.9643 2.50511 24.847 3.91984C22.7298 5.33456 21.0795 7.34536 20.1051 9.69796C19.1306 12.0506 18.8756 14.6393 19.3724 17.1368C19.8692 19.6343 21.0954 21.9284 22.896 23.729C24.6966 25.5296 26.9907 26.7558 29.4882 27.2526C31.9857 27.7494 34.5745 27.4944 36.9271 26.52C39.2797 25.5455 41.2905 23.8953 42.7052 21.778C44.1199 19.6607 44.875 17.1714 44.875 14.625C44.8712 11.2115 43.5135 7.93895 41.0998 5.52525C38.6861 3.11155 35.4135 1.75384 32 1.75001V1.75001Z" fill="#3C4A58"/>
<path d="M14.625 64C11.7325 64 8.90486 63.1423 6.49979 61.5353C4.09472 59.9282 2.2202 57.6441 1.11327 54.9718C0.00633669 52.2994 -0.283287 49.3588 0.281022 46.5218C0.845331 43.6848 2.23823 41.0789 4.28357 39.0336C6.32891 36.9882 8.93484 35.5953 11.7718 35.031C14.6088 34.4667 17.5494 34.7563 20.2218 35.8633C22.8941 36.9702 25.1782 38.8447 26.7852 41.2498C28.3923 43.6549 29.25 46.4825 29.25 49.375C29.2456 53.2525 27.7034 56.9698 24.9616 59.7116C22.2198 62.4534 18.5025 63.9956 14.625 64V64ZM14.625 36.5C12.0786 36.5 9.58932 37.2551 7.47204 38.6698C5.35476 40.0846 3.70454 42.0954 2.73006 44.448C1.75558 46.8006 1.50061 49.3893 1.9974 51.8868C2.49418 54.3843 3.72041 56.6784 5.52101 58.479C7.32161 60.2796 9.61571 61.5058 12.1132 62.0026C14.6107 62.4994 17.1995 62.2444 19.5521 61.27C21.9047 60.2955 23.9155 58.6453 25.3302 56.528C26.7449 54.4107 27.5 51.9214 27.5 49.375C27.4962 45.9615 26.1385 42.6889 23.7248 40.2752C21.3111 37.8615 18.0385 36.5038 14.625 36.5V36.5Z" fill="#3C4A58"/>
<path d="M49.375 64C46.4825 64 43.6549 63.1423 41.2498 61.5353C38.8447 59.9282 36.9702 57.6441 35.8633 54.9718C34.7563 52.2994 34.4667 49.3588 35.031 46.5218C35.5953 43.6848 36.9882 41.0789 39.0336 39.0336C41.0789 36.9882 43.6848 35.5953 46.5218 35.031C49.3588 34.4667 52.2994 34.7563 54.9718 35.8633C57.6441 36.9702 59.9282 38.8447 61.5353 41.2498C63.1423 43.6549 64 46.4825 64 49.375C63.9956 53.2525 62.4534 56.9698 59.7116 59.7116C56.9698 62.4534 53.2525 63.9956 49.375 64V64ZM49.375 36.5C46.8286 36.5 44.3393 37.2551 42.222 38.6698C40.1048 40.0846 38.4545 42.0954 37.4801 44.448C36.5056 46.8006 36.2506 49.3893 36.7474 51.8868C37.2442 54.3843 38.4704 56.6784 40.271 58.479C42.0716 60.2796 44.3657 61.5058 46.8632 62.0026C49.3607 62.4994 51.9495 62.2444 54.3021 61.27C56.6547 60.2955 58.6655 58.6453 60.0802 56.528C61.4949 54.4107 62.25 51.9214 62.25 49.375C62.2462 45.9615 60.8885 42.6889 58.4748 40.2752C56.0611 37.8615 52.7885 36.5038 49.375 36.5Z" fill="#3C4A58"/>
</g>
<defs>
<clipPath id="clip0_160_156">
<rect width="64" height="64" fill="white"/>
</clipPath>
</defs>
</svg>
