<svg width="64" height="64" viewBox="0 0 64 64" fill="none" xmlns="http://www.w3.org/2000/svg">
<path d="M47.8004 46.6996L42.0004 44.5496L40.9004 43.8996C40.5004 43.6496 40.4504 43.7996 40.2004 44.1996C40.1004 44.3496 40.1004 44.4996 40.1004 44.6496V52.5996L39.6504 54.5496C39.6504 55.0496 39.0504 55.4496 39.5004 55.4496H51.0504C51.5504 55.4496 51.9004 55.0496 51.9504 54.5496V52.5496C51.9004 49.8996 50.3004 47.5996 47.8004 46.6996ZM50.2004 53.6496H40.5004L41.0504 46.0996L41.3004 46.1996L47.2004 48.3496C48.9504 48.9996 50.1504 50.6996 50.1504 52.5496L50.2004 53.6496Z" fill="#3C4A58"/>
<path d="M48.15 24.0504V16.3004C48.15 12.0504 44.7 8.65039 40.5 8.65039H26.75C24.85 8.65039 23.25 9.95039 22.85 11.8004C20.6 12.2004 18.95 14.1504 18.95 16.4004V24.7504C18.5 25.4504 18.25 26.2504 18.25 27.0504C18.25 29.4004 20.15 31.3504 22.55 31.3504H22.6C22.6 31.4504 22.55 32.4004 22.8 33.6504V33.7504L24.4 33.9504V32.7004C24.35 32.3004 24.35 31.9004 24.35 31.5004V30.5004V23.7004C24.35 22.4004 24.4 20.9004 24.45 20.5504C24.8 19.6504 25.7 19.1004 26.7 19.2504C29.05 19.6504 31.45 19.9004 33.85 19.8504C36.25 19.8504 38.65 19.6504 41 19.2504C42.2 19.0004 43.35 19.9504 43.35 21.2004V31.5004C43.35 33.6504 42.65 35.7004 41.35 37.3504L41 37.7004L40.05 37.9004V39.5004C40.05 40.0004 39.95 40.4004 40.45 40.3504C40.65 40.3504 40.85 40.3004 41 40.1504C41.3 39.9004 41.55 39.6504 41.8 39.4004C43.85 37.3504 45.1 34.5004 45.1 31.4504V31.3004H45.2C47.55 31.3004 49.5 29.4004 49.5 27.0504C49.45 25.9504 48.95 24.8504 48.15 24.0504ZM22.6 29.6504H22.5C21.1 29.6504 19.95 28.5004 19.95 27.1004C19.95 25.7504 21.05 24.5504 22.5 24.5504H22.55V29.6504H22.6ZM40.65 17.5504C38.4 17.9504 36.1 18.1504 33.8 18.1504C31.5 18.1504 29.25 17.9504 26.95 17.5504C26.85 17.5504 26.7 17.5004 26.6 17.5004C24.9 17.3504 23.25 18.4004 22.7 20.0504C22.6 20.4504 22.5 20.8004 22.5 21.2004V22.8004C22.45 22.8004 21.55 22.7504 20.6 23.2004V16.4004C20.6 14.9004 21.75 13.6504 23.25 13.5004C23.7 13.6504 24.2 13.4004 24.35 12.9504C24.4 12.8504 24.4 12.7504 24.4 12.6504C24.4 11.4004 25.4 10.4004 26.65 10.4004H40.5C43.75 10.4004 46.4 13.0504 46.4 16.3004V23.0004C45.9 22.8504 45.55 22.8504 45.1 22.8004V21.2004C45.1 18.9004 42.95 17.1004 40.65 17.5504ZM46.95 28.9004C46.5 29.4004 45.85 29.6504 45.15 29.6504H45.1V24.6004H45.15C46.5 24.6004 47.7 25.7004 47.7 27.1004C47.7 27.7504 47.4 28.4004 46.95 28.9004Z" fill="#3C4A58"/>
<path d="M46.3996 48.9002H41.2996V35.5002C41.2996 33.9502 40.0496 32.7002 38.4996 32.7002H14.8996C13.3496 32.7002 12.0996 33.9502 12.0996 35.5002V52.6002C12.0996 54.1502 13.3496 55.4002 14.8996 55.4002H38.4996H43.8996C45.7496 55.4002 47.2996 53.9002 47.2996 52.0002V49.7502C47.2496 49.3002 46.8496 48.9002 46.3996 48.9002ZM13.7996 52.6002V35.5002C13.7996 34.9002 14.2496 34.4502 14.8496 34.4502H38.4996C39.0996 34.4502 39.5496 34.9002 39.5496 35.5002V49.7502V52.5502C39.5496 53.1502 39.0996 53.6002 38.4996 53.6002H14.8996C14.2996 53.6502 13.7996 53.2002 13.7996 52.6002ZM45.4996 52.0002C45.4996 52.9002 44.7496 53.6502 43.8496 53.6502H41.0496C41.1996 53.3002 41.2496 52.9002 41.2496 52.6002V50.6502H45.4996V52.0002Z" fill="#3C4A58"/>
<path d="M26.6996 40.7002C24.8496 40.7002 23.3496 42.2002 23.3496 44.0502C23.3496 45.9002 24.8496 47.4002 26.6996 47.4002C28.5496 47.4002 30.0496 45.9002 30.0496 44.0502C30.0496 42.2002 28.5496 40.7002 26.6996 40.7002ZM26.6996 45.7002C25.7996 45.7002 25.0996 44.9502 25.0996 44.1002C25.0996 43.2002 25.8496 42.5002 26.6996 42.5002C27.5996 42.5002 28.2996 43.2502 28.2996 44.1002C28.2996 44.9502 27.5496 45.7002 26.6996 45.7002Z" fill="#3C4A58"/>
</svg>
