<svg width="64" height="64" viewBox="0 0 64 64" fill="none" xmlns="http://www.w3.org/2000/svg">
<path d="M41.2244 55.3754H13.4939C12.425 55.3754 11.4 54.9508 10.6442 54.1951C9.88846 53.4393 9.46387 52.4143 9.46387 51.3454C9.46387 50.2766 9.88846 49.2516 10.6442 48.4958C11.4 47.74 12.425 47.3154 13.4939 47.3154H41.2244C41.4564 47.3156 41.6789 47.4078 41.8429 47.5719C42.007 47.7359 42.0992 47.9584 42.0994 48.1904V54.5004C42.0992 54.7325 42.007 54.9549 41.8429 55.119C41.6789 55.2831 41.4564 55.3753 41.2244 55.3754V55.3754ZM13.4939 49.0654C12.8892 49.0654 12.3092 49.3056 11.8817 49.7332C11.4541 50.1608 11.2139 50.7407 11.2139 51.3454C11.2139 51.9501 11.4541 52.5301 11.8817 52.9576C12.3092 53.3852 12.8892 53.6254 13.4939 53.6254H40.3504V49.0654H13.4939Z" fill="#3C4A58"/>
<path d="M41.2251 49.0675H15.2471C15.1321 49.0676 15.0183 49.045 14.9121 49.001C14.806 48.9571 14.7095 48.8926 14.6282 48.8114C14.5469 48.7301 14.4825 48.6336 14.4385 48.5274C14.3946 48.4212 14.372 48.3074 14.3721 48.1925V9.5C14.3721 9.26794 14.4643 9.04538 14.6284 8.88128C14.7924 8.71719 15.015 8.625 15.2471 8.625H41.2251C41.4571 8.62513 41.6796 8.71736 41.8436 8.88143C42.0077 9.04549 42.0999 9.26798 42.1001 9.5V20.172C42.1 20.3099 42.0674 20.4458 42.0048 20.5687C41.9423 20.6916 41.8515 20.7979 41.7401 20.8791C41.6286 20.9603 41.4995 21.0139 41.3634 21.0357C41.2272 21.0575 41.0878 21.0468 40.9566 21.0045C40.5104 20.8604 40.0537 20.751 39.5906 20.6775C38.139 20.4483 36.6538 20.5651 35.256 21.0186C33.8581 21.4721 32.5871 22.2493 31.5466 23.287C30.5102 24.3284 29.7337 25.5993 29.2803 26.9968C28.8268 28.3943 28.7091 29.879 28.9366 31.3305C29.1453 32.6617 29.645 33.9305 30.4001 35.0465C30.7392 35.5461 31.1242 36.013 31.5501 36.441C31.5941 36.4855 31.6421 36.5285 31.6901 36.572C32.897 37.7329 34.3956 38.5455 36.0269 38.9236C37.6583 39.3016 39.3616 39.2311 40.9561 38.7195C41.0874 38.6772 41.2268 38.6665 41.363 38.6883C41.4993 38.7102 41.6284 38.7639 41.7399 38.8451C41.8514 38.9263 41.9422 39.0327 42.0048 39.1556C42.0674 39.2786 42.1 39.4145 42.1001 39.5525V48.1925C42.1001 48.4246 42.0079 48.6471 41.8438 48.8112C41.6797 48.9753 41.4571 49.0675 41.2251 49.0675V49.0675ZM16.1221 47.3175H40.3501V40.6865C39.0444 40.9535 37.7014 40.9837 36.3851 40.7755C34.1706 40.426 32.1166 39.4058 30.5001 37.8525C30.4501 37.8055 30.3801 37.743 30.3116 37.675C29.8086 37.1684 29.354 36.616 28.9536 36.025C28.0545 34.6975 27.4593 33.1879 27.2106 31.604C26.9402 29.8799 27.0799 28.1164 27.6185 26.4564C28.1572 24.7965 29.0794 23.2869 30.3106 22.05C31.5463 20.8169 33.0559 19.8933 34.7164 19.3546C36.377 18.8158 38.1413 18.6772 39.8656 18.95C40.0272 18.975 40.1892 19.0043 40.3516 19.038V10.375H16.1221V47.3175Z" fill="#3C4A58"/>
<path d="M10.3389 52.22C10.1068 52.22 9.88424 52.1278 9.72015 51.9637C9.55605 51.7996 9.46387 51.5771 9.46387 51.345V12.655C9.46493 11.5865 9.88985 10.5621 10.6454 9.80653C11.4009 9.05099 12.4254 8.62606 13.4939 8.625H15.2504C15.4821 8.62553 15.7042 8.71793 15.868 8.88196C16.0317 9.04598 16.1237 9.26824 16.1239 9.5V48.19C16.1237 48.422 16.0315 48.6445 15.8674 48.8086C15.7034 48.9726 15.4809 49.0649 15.2489 49.065H13.4939C12.8894 49.0657 12.3098 49.3061 11.8824 49.7335C11.455 50.161 11.2145 50.7405 11.2139 51.345C11.2137 51.577 11.1215 51.7995 10.9574 51.9636C10.7934 52.1276 10.5709 52.2199 10.3389 52.22V52.22ZM13.4939 10.375C12.8895 10.3759 12.3101 10.6164 11.8827 11.0438C11.4553 11.4712 11.2148 12.0506 11.2139 12.655V48.022C11.8841 47.5596 12.6796 47.3129 13.4939 47.315H14.3739V10.375H13.4939Z" fill="#3C4A58"/>
<path d="M38.1222 40.9124C35.2821 40.9139 32.5514 39.8177 30.5007 37.8529C30.4507 37.8059 30.3807 37.7434 30.3122 37.6754C29.8092 37.1688 29.3546 36.6164 28.9542 36.0254C28.0551 34.6978 27.46 33.1883 27.2112 31.6044C26.9373 29.8804 27.0755 28.116 27.6145 26.4557C28.1535 24.7953 29.078 23.2862 30.3123 22.0519C31.5466 20.8175 33.0557 19.8929 34.716 19.3539C36.3763 18.8148 38.1407 18.6765 39.8647 18.9504C41.4473 19.2057 42.9566 19.7982 44.2902 20.6879C44.8828 21.0882 45.4353 21.5448 45.9402 22.0514C45.9902 22.0939 46.0612 22.1719 46.1327 22.2514C47.7676 23.9664 48.8067 26.1623 49.0962 28.514C49.3858 30.8656 48.9103 33.248 47.7402 35.3084C47.2525 36.1773 46.6468 36.9744 45.9402 37.6769C45.238 38.3864 44.4393 38.9933 43.5677 39.4799C41.9069 40.4199 40.031 40.9139 38.1227 40.9139L38.1222 40.9124ZM38.1352 20.5624C36.7885 20.5608 35.4576 20.8516 34.2343 21.4145C33.011 21.9775 31.9244 22.7993 31.0497 23.8232C30.175 24.847 29.5329 26.0486 29.1678 27.3448C28.8028 28.641 28.7234 30.001 28.9352 31.3309C29.1445 32.6622 29.6449 33.931 30.4007 35.0469C30.7398 35.5465 31.1248 36.0133 31.5507 36.4414C31.5947 36.4859 31.6427 36.5289 31.6907 36.5724C33.1342 37.9574 34.9861 38.8399 36.9711 39.0887C38.9561 39.3375 40.9685 38.9393 42.7092 37.9534C43.4409 37.5453 44.1114 37.0359 44.7007 36.4404C45.295 35.8504 45.8044 35.1807 46.2142 34.4504L46.2187 34.4424C47.2046 32.7058 47.6041 30.6976 47.358 28.716C47.1118 26.7343 46.233 24.8849 44.8522 23.4424C44.8147 23.3986 44.7749 23.3567 44.7332 23.3169C44.2988 22.8792 43.823 22.4845 43.3127 22.1384C42.1905 21.3917 40.9216 20.8937 39.5912 20.6779C39.1097 20.6009 38.6228 20.5623 38.1352 20.5624V20.5624Z" fill="#3C4A58"/>
<path d="M51.7912 47.1075C51.3192 47.1085 50.8515 47.0163 50.4152 46.8361C49.9789 46.6559 49.5825 46.3913 49.2487 46.0575L42.5247 39.332C42.4293 39.2365 42.3572 39.1202 42.3142 38.9922C42.2712 38.8642 42.2583 38.728 42.2767 38.5943C42.295 38.4605 42.3441 38.3328 42.42 38.2211C42.4959 38.1094 42.5966 38.0168 42.7142 37.9505C44.1758 37.1217 45.3854 35.9121 46.2142 34.4505C46.2804 34.3329 46.373 34.2321 46.4846 34.1562C46.5963 34.0803 46.724 34.0313 46.8578 34.013C46.9915 33.9947 47.1277 34.0076 47.2557 34.0507C47.3836 34.0938 47.4998 34.166 47.5952 34.2615L54.3192 40.9855C54.8222 41.4861 55.1652 42.1247 55.3048 42.8205C55.4445 43.5163 55.3744 44.2378 55.1034 44.8937C54.8325 45.5495 54.3729 46.1102 53.783 46.5046C53.1931 46.899 52.4993 47.1094 51.7897 47.109L51.7912 47.1075ZM44.5332 38.8655L50.4862 44.8185C50.8308 45.1631 51.298 45.357 51.7854 45.3578C52.2727 45.3585 52.7405 45.166 53.0862 44.8225C53.2568 44.6516 53.3921 44.4488 53.4843 44.2256C53.5764 44.0024 53.6237 43.7632 53.6233 43.5217C53.6229 43.2802 53.5749 43.0412 53.4821 42.8182C53.3892 42.5953 53.2534 42.3929 53.0822 42.2225L47.1307 36.2685C46.4147 37.2721 45.5369 38.1497 44.5332 38.8655Z" fill="#3C4A58"/>
</svg>
